<mxfile host="www.draw.io" modified="2020-01-10T14:35:14.658Z" agent="Mozilla/5.0 (Windows NT 10.0; Win64; x64) AppleWebKit/537.36 (KHTML, like Gecko) Chrome/79.0.3945.117 Safari/537.36" etag="GSsgfJkQpxZw0PwTNomL" version="12.5.1" type="github">
  <diagram id="KSHcdNnMXGw2NoKth185" name="Page-1">
    <mxGraphModel dx="1278" dy="580" grid="1" gridSize="10" guides="1" tooltips="1" connect="1" arrows="1" fold="1" page="1" pageScale="1" pageWidth="850" pageHeight="1100" math="0" shadow="0">
      <root>
        <mxCell id="0"/>
        <mxCell id="1" parent="0"/>
        <mxCell id="qlAdY1XwLGwGvMlZjiqR-1" value="&lt;p style=&quot;line-height: 100%&quot;&gt;&lt;font style=&quot;font-size: 18px&quot;&gt;Match&lt;/font&gt;&lt;/p&gt;" style="rounded=0;whiteSpace=wrap;html=1;" parent="1" vertex="1">
          <mxGeometry x="230" y="180" width="90" height="50" as="geometry"/>
        </mxCell>
        <mxCell id="qlAdY1XwLGwGvMlZjiqR-7" value="&lt;font style=&quot;font-size: 18px&quot;&gt;Team&lt;/font&gt;" style="ellipse;shape=doubleEllipse;margin=3;whiteSpace=wrap;html=1;align=center;" parent="1" vertex="1">
          <mxGeometry x="40" y="120" width="80" height="40" as="geometry"/>
        </mxCell>
        <mxCell id="qlAdY1XwLGwGvMlZjiqR-8" value="" style="endArrow=none;html=1;rounded=0;exitX=0.987;exitY=0.5;exitDx=0;exitDy=0;exitPerimeter=0;entryX=0;entryY=0;entryDx=0;entryDy=0;" parent="1" source="qlAdY1XwLGwGvMlZjiqR-7" target="qlAdY1XwLGwGvMlZjiqR-1" edge="1">
          <mxGeometry relative="1" as="geometry">
            <mxPoint x="20" y="240" as="sourcePoint"/>
            <mxPoint x="180" y="240" as="targetPoint"/>
          </mxGeometry>
        </mxCell>
        <mxCell id="qlAdY1XwLGwGvMlZjiqR-9" value="&lt;font style=&quot;font-size: 18px&quot;&gt;ID&lt;/font&gt;" style="ellipse;whiteSpace=wrap;html=1;align=center;fontStyle=4;" parent="1" vertex="1">
          <mxGeometry x="30" y="60" width="100" height="40" as="geometry"/>
        </mxCell>
        <mxCell id="qlAdY1XwLGwGvMlZjiqR-10" value="&lt;font style=&quot;font-size: 18px&quot;&gt;Image&lt;/font&gt;" style="ellipse;shape=doubleEllipse;margin=3;whiteSpace=wrap;html=1;align=center;" parent="1" vertex="1">
          <mxGeometry x="37.5" y="180" width="85" height="50" as="geometry"/>
        </mxCell>
        <mxCell id="qlAdY1XwLGwGvMlZjiqR-11" value="&lt;font style=&quot;font-size: 18px&quot;&gt;Price&lt;/font&gt;" style="ellipse;shape=doubleEllipse;margin=3;whiteSpace=wrap;html=1;align=center;" parent="1" vertex="1">
          <mxGeometry x="42.5" y="250" width="80" height="50" as="geometry"/>
        </mxCell>
        <mxCell id="qlAdY1XwLGwGvMlZjiqR-12" value="&lt;font style=&quot;font-size: 17px&quot;&gt;Date/&lt;br&gt;Time&lt;/font&gt;" style="ellipse;whiteSpace=wrap;html=1;align=center;" parent="1" vertex="1">
          <mxGeometry x="40" y="320" width="87.5" height="50" as="geometry"/>
        </mxCell>
        <mxCell id="qlAdY1XwLGwGvMlZjiqR-13" value="" style="endArrow=none;html=1;rounded=0;entryX=0.25;entryY=0;entryDx=0;entryDy=0;exitX=0.944;exitY=0.775;exitDx=0;exitDy=0;exitPerimeter=0;" parent="1" source="qlAdY1XwLGwGvMlZjiqR-9" target="qlAdY1XwLGwGvMlZjiqR-1" edge="1">
          <mxGeometry relative="1" as="geometry">
            <mxPoint x="125" y="92" as="sourcePoint"/>
            <mxPoint x="268.75" y="79.5" as="targetPoint"/>
          </mxGeometry>
        </mxCell>
        <mxCell id="qlAdY1XwLGwGvMlZjiqR-14" value="" style="endArrow=none;html=1;rounded=0;entryX=0;entryY=1;entryDx=0;entryDy=0;exitX=0.964;exitY=0.356;exitDx=0;exitDy=0;exitPerimeter=0;" parent="1" source="qlAdY1XwLGwGvMlZjiqR-11" target="qlAdY1XwLGwGvMlZjiqR-1" edge="1">
          <mxGeometry relative="1" as="geometry">
            <mxPoint x="100" y="274.5" as="sourcePoint"/>
            <mxPoint x="260" y="274.5" as="targetPoint"/>
          </mxGeometry>
        </mxCell>
        <mxCell id="qlAdY1XwLGwGvMlZjiqR-15" value="" style="endArrow=none;html=1;rounded=0;entryX=0.25;entryY=1;entryDx=0;entryDy=0;exitX=0.928;exitY=0.204;exitDx=0;exitDy=0;exitPerimeter=0;" parent="1" source="qlAdY1XwLGwGvMlZjiqR-12" target="qlAdY1XwLGwGvMlZjiqR-1" edge="1">
          <mxGeometry relative="1" as="geometry">
            <mxPoint x="102.5" y="344.5" as="sourcePoint"/>
            <mxPoint x="262.5" y="344.5" as="targetPoint"/>
          </mxGeometry>
        </mxCell>
        <mxCell id="qlAdY1XwLGwGvMlZjiqR-16" value="" style="endArrow=none;html=1;rounded=0;entryX=0;entryY=0.5;entryDx=0;entryDy=0;exitX=1;exitY=0.5;exitDx=0;exitDy=0;" parent="1" source="qlAdY1XwLGwGvMlZjiqR-10" target="qlAdY1XwLGwGvMlZjiqR-1" edge="1">
          <mxGeometry relative="1" as="geometry">
            <mxPoint x="130" y="205" as="sourcePoint"/>
            <mxPoint x="160" y="205" as="targetPoint"/>
          </mxGeometry>
        </mxCell>
        <mxCell id="qlAdY1XwLGwGvMlZjiqR-19" value="&lt;p style=&quot;line-height: 100%&quot;&gt;&lt;font style=&quot;font-size: 18px&quot;&gt;Stadium&lt;/font&gt;&lt;/p&gt;" style="rounded=0;whiteSpace=wrap;html=1;" parent="1" vertex="1">
          <mxGeometry x="500" y="180" width="90" height="50" as="geometry"/>
        </mxCell>
        <mxCell id="qlAdY1XwLGwGvMlZjiqR-22" value="&lt;font style=&quot;font-size: 18px&quot;&gt;ID&lt;/font&gt;" style="ellipse;whiteSpace=wrap;html=1;align=center;fontStyle=4;" parent="1" vertex="1">
          <mxGeometry x="681.25" y="60" width="100" height="40" as="geometry"/>
        </mxCell>
        <mxCell id="qlAdY1XwLGwGvMlZjiqR-25" value="&lt;font style=&quot;font-size: 18px&quot;&gt;Address&lt;/font&gt;" style="ellipse;whiteSpace=wrap;html=1;align=center;" parent="1" vertex="1">
          <mxGeometry x="703.75" y="320" width="87.5" height="50" as="geometry"/>
        </mxCell>
        <mxCell id="qlAdY1XwLGwGvMlZjiqR-30" value="" style="endArrow=none;html=1;rounded=0;exitX=0.75;exitY=0;exitDx=0;exitDy=0;" parent="1" source="qlAdY1XwLGwGvMlZjiqR-19" edge="1">
          <mxGeometry relative="1" as="geometry">
            <mxPoint x="521.25" y="79.5" as="sourcePoint"/>
            <mxPoint x="681.25" y="79.5" as="targetPoint"/>
          </mxGeometry>
        </mxCell>
        <mxCell id="qlAdY1XwLGwGvMlZjiqR-33" value="" style="endArrow=none;html=1;rounded=0;exitX=1;exitY=1;exitDx=0;exitDy=0;" parent="1" source="qlAdY1XwLGwGvMlZjiqR-19" edge="1">
          <mxGeometry relative="1" as="geometry">
            <mxPoint x="541.25" y="274.5" as="sourcePoint"/>
            <mxPoint x="701.25" y="274.5" as="targetPoint"/>
          </mxGeometry>
        </mxCell>
        <mxCell id="qlAdY1XwLGwGvMlZjiqR-34" value="" style="endArrow=none;html=1;rounded=0;exitX=0.75;exitY=1;exitDx=0;exitDy=0;entryX=0;entryY=0.5;entryDx=0;entryDy=0;" parent="1" source="qlAdY1XwLGwGvMlZjiqR-19" target="qlAdY1XwLGwGvMlZjiqR-25" edge="1">
          <mxGeometry relative="1" as="geometry">
            <mxPoint x="537.5" y="344.5" as="sourcePoint"/>
            <mxPoint x="697.5" y="344.5" as="targetPoint"/>
          </mxGeometry>
        </mxCell>
        <mxCell id="qlAdY1XwLGwGvMlZjiqR-45" value="&lt;span style=&quot;font-size: 18px&quot;&gt;City&lt;/span&gt;" style="ellipse;whiteSpace=wrap;html=1;align=center;" parent="1" vertex="1">
          <mxGeometry x="693.75" y="250" width="87.5" height="50" as="geometry"/>
        </mxCell>
        <mxCell id="qlAdY1XwLGwGvMlZjiqR-46" value="&lt;font style=&quot;font-size: 18px&quot;&gt;Image&lt;/font&gt;" style="ellipse;whiteSpace=wrap;html=1;align=center;" parent="1" vertex="1">
          <mxGeometry x="693.75" y="180" width="87.5" height="50" as="geometry"/>
        </mxCell>
        <mxCell id="qlAdY1XwLGwGvMlZjiqR-47" value="&lt;font style=&quot;font-size: 18px&quot;&gt;Name&lt;/font&gt;" style="ellipse;whiteSpace=wrap;html=1;align=center;" parent="1" vertex="1">
          <mxGeometry x="693.75" y="115" width="87.5" height="50" as="geometry"/>
        </mxCell>
        <mxCell id="qlAdY1XwLGwGvMlZjiqR-48" value="" style="endArrow=none;html=1;rounded=0;entryX=0;entryY=0.5;entryDx=0;entryDy=0;" parent="1" target="qlAdY1XwLGwGvMlZjiqR-47" edge="1">
          <mxGeometry relative="1" as="geometry">
            <mxPoint x="580" y="180" as="sourcePoint"/>
            <mxPoint x="740" y="180" as="targetPoint"/>
          </mxGeometry>
        </mxCell>
        <mxCell id="qlAdY1XwLGwGvMlZjiqR-49" value="" style="endArrow=none;html=1;rounded=0;" parent="1" edge="1">
          <mxGeometry relative="1" as="geometry">
            <mxPoint x="590" y="200" as="sourcePoint"/>
            <mxPoint x="690" y="200" as="targetPoint"/>
          </mxGeometry>
        </mxCell>
        <mxCell id="qlAdY1XwLGwGvMlZjiqR-51" value="&lt;font style=&quot;font-size: 18px&quot;&gt;Number &lt;br&gt;of Seats&lt;/font&gt;" style="ellipse;shape=doubleEllipse;margin=3;whiteSpace=wrap;html=1;align=center;" parent="1" vertex="1">
          <mxGeometry x="540" y="30" width="100" height="60" as="geometry"/>
        </mxCell>
        <mxCell id="qlAdY1XwLGwGvMlZjiqR-52" value="" style="endArrow=none;html=1;rounded=0;entryX=0.5;entryY=1;entryDx=0;entryDy=0;exitX=0.5;exitY=0;exitDx=0;exitDy=0;" parent="1" source="qlAdY1XwLGwGvMlZjiqR-19" target="qlAdY1XwLGwGvMlZjiqR-51" edge="1">
          <mxGeometry relative="1" as="geometry">
            <mxPoint x="450" y="100" as="sourcePoint"/>
            <mxPoint x="610" y="100" as="targetPoint"/>
          </mxGeometry>
        </mxCell>
        <mxCell id="qlAdY1XwLGwGvMlZjiqR-77" value="&lt;p style=&quot;line-height: 100%&quot;&gt;&lt;font style=&quot;font-size: 18px&quot;&gt;User&lt;/font&gt;&lt;/p&gt;" style="rounded=0;whiteSpace=wrap;html=1;" parent="1" vertex="1">
          <mxGeometry x="499.99999999999994" y="570" width="90" height="50" as="geometry"/>
        </mxCell>
        <mxCell id="qlAdY1XwLGwGvMlZjiqR-78" value="&lt;font style=&quot;font-size: 18px&quot;&gt;ID&lt;/font&gt;" style="ellipse;whiteSpace=wrap;html=1;align=center;fontStyle=4;" parent="1" vertex="1">
          <mxGeometry x="681.25" y="410" width="100" height="40" as="geometry"/>
        </mxCell>
        <mxCell id="qlAdY1XwLGwGvMlZjiqR-79" value="&lt;font style=&quot;font-size: 18px&quot;&gt;Profession&lt;/font&gt;" style="ellipse;whiteSpace=wrap;html=1;align=center;" parent="1" vertex="1">
          <mxGeometry x="714.69" y="630" width="105.31" height="50" as="geometry"/>
        </mxCell>
        <mxCell id="qlAdY1XwLGwGvMlZjiqR-80" value="" style="endArrow=none;html=1;rounded=0;exitX=0.25;exitY=0;exitDx=0;exitDy=0;" parent="1" source="qlAdY1XwLGwGvMlZjiqR-77" edge="1">
          <mxGeometry relative="1" as="geometry">
            <mxPoint x="521.25" y="469.49999999999994" as="sourcePoint"/>
            <mxPoint x="681" y="430" as="targetPoint"/>
          </mxGeometry>
        </mxCell>
        <mxCell id="qlAdY1XwLGwGvMlZjiqR-81" value="" style="endArrow=none;html=1;rounded=0;exitX=1;exitY=0.25;exitDx=0;exitDy=0;entryX=0.031;entryY=0.348;entryDx=0;entryDy=0;entryPerimeter=0;" parent="1" source="qlAdY1XwLGwGvMlZjiqR-77" target="qlAdY1XwLGwGvMlZjiqR-83" edge="1">
          <mxGeometry relative="1" as="geometry">
            <mxPoint x="541.25" y="664.5" as="sourcePoint"/>
            <mxPoint x="701.25" y="664.5" as="targetPoint"/>
          </mxGeometry>
        </mxCell>
        <mxCell id="qlAdY1XwLGwGvMlZjiqR-82" value="" style="endArrow=none;html=1;rounded=0;exitX=1;exitY=0.5;exitDx=0;exitDy=0;entryX=0;entryY=0.5;entryDx=0;entryDy=0;" parent="1" source="qlAdY1XwLGwGvMlZjiqR-77" target="qlAdY1XwLGwGvMlZjiqR-79" edge="1">
          <mxGeometry relative="1" as="geometry">
            <mxPoint x="537.5" y="734.5" as="sourcePoint"/>
            <mxPoint x="697.5" y="734.5" as="targetPoint"/>
          </mxGeometry>
        </mxCell>
        <mxCell id="qlAdY1XwLGwGvMlZjiqR-83" value="&lt;span style=&quot;font-size: 18px&quot;&gt;Gender&lt;/span&gt;" style="ellipse;whiteSpace=wrap;html=1;align=center;" parent="1" vertex="1">
          <mxGeometry x="712.5" y="570" width="77.5" height="50" as="geometry"/>
        </mxCell>
        <mxCell id="qlAdY1XwLGwGvMlZjiqR-84" value="&lt;span style=&quot;font-size: 18px&quot;&gt;Age&lt;/span&gt;" style="ellipse;whiteSpace=wrap;html=1;align=center;" parent="1" vertex="1">
          <mxGeometry x="703.75" y="520" width="86.25" height="40" as="geometry"/>
        </mxCell>
        <mxCell id="qlAdY1XwLGwGvMlZjiqR-85" value="&lt;font style=&quot;font-size: 18px&quot;&gt;Name&lt;/font&gt;" style="ellipse;whiteSpace=wrap;html=1;align=center;" parent="1" vertex="1">
          <mxGeometry x="700" y="459.99999999999994" width="87.5" height="50" as="geometry"/>
        </mxCell>
        <mxCell id="qlAdY1XwLGwGvMlZjiqR-86" value="" style="endArrow=none;html=1;rounded=0;entryX=0;entryY=0.5;entryDx=0;entryDy=0;exitX=0.5;exitY=0;exitDx=0;exitDy=0;" parent="1" source="qlAdY1XwLGwGvMlZjiqR-77" target="qlAdY1XwLGwGvMlZjiqR-85" edge="1">
          <mxGeometry relative="1" as="geometry">
            <mxPoint x="580" y="570" as="sourcePoint"/>
            <mxPoint x="740" y="570" as="targetPoint"/>
          </mxGeometry>
        </mxCell>
        <mxCell id="qlAdY1XwLGwGvMlZjiqR-87" value="" style="endArrow=none;html=1;rounded=0;entryX=0;entryY=0.5;entryDx=0;entryDy=0;exitX=0.75;exitY=0;exitDx=0;exitDy=0;" parent="1" source="qlAdY1XwLGwGvMlZjiqR-77" target="qlAdY1XwLGwGvMlZjiqR-84" edge="1">
          <mxGeometry relative="1" as="geometry">
            <mxPoint x="590" y="590" as="sourcePoint"/>
            <mxPoint x="690" y="590" as="targetPoint"/>
          </mxGeometry>
        </mxCell>
        <mxCell id="qlAdY1XwLGwGvMlZjiqR-90" value="&lt;font style=&quot;font-size: 16px&quot;&gt;1&lt;/font&gt;" style="resizable=0;html=1;align=right;verticalAlign=bottom;" parent="1" connectable="0" vertex="1">
          <mxGeometry x="1" relative="1" as="geometry">
            <mxPoint x="33" y="500" as="offset"/>
          </mxGeometry>
        </mxCell>
        <mxCell id="qlAdY1XwLGwGvMlZjiqR-91" value="&lt;font style=&quot;font-size: 18px&quot;&gt;Email&lt;/font&gt;" style="ellipse;whiteSpace=wrap;html=1;align=center;" parent="1" vertex="1">
          <mxGeometry x="719.07" y="690" width="83.12" height="40" as="geometry"/>
        </mxCell>
        <mxCell id="qlAdY1XwLGwGvMlZjiqR-94" value="" style="endArrow=none;html=1;rounded=0;exitX=1;exitY=1;exitDx=0;exitDy=0;entryX=0;entryY=0.5;entryDx=0;entryDy=0;" parent="1" source="qlAdY1XwLGwGvMlZjiqR-77" target="qlAdY1XwLGwGvMlZjiqR-91" edge="1">
          <mxGeometry relative="1" as="geometry">
            <mxPoint x="543.75" y="804.44" as="sourcePoint"/>
            <mxPoint x="710" y="720" as="targetPoint"/>
          </mxGeometry>
        </mxCell>
        <mxCell id="qlAdY1XwLGwGvMlZjiqR-110" value="&lt;span style=&quot;font-size: 18px&quot;&gt;Password&lt;/span&gt;" style="ellipse;whiteSpace=wrap;html=1;align=center;" parent="1" vertex="1">
          <mxGeometry x="714.6899999999999" y="740" width="96.25" height="50" as="geometry"/>
        </mxCell>
        <mxCell id="qlAdY1XwLGwGvMlZjiqR-111" value="&lt;span style=&quot;font-size: 18px&quot;&gt;City&lt;/span&gt;" style="ellipse;whiteSpace=wrap;html=1;align=center;" parent="1" vertex="1">
          <mxGeometry x="730.63" y="860" width="84.37" height="40" as="geometry"/>
        </mxCell>
        <mxCell id="qlAdY1XwLGwGvMlZjiqR-114" value="" style="endArrow=none;html=1;rounded=0;exitX=0.75;exitY=1;exitDx=0;exitDy=0;" parent="1" source="qlAdY1XwLGwGvMlZjiqR-77" edge="1">
          <mxGeometry relative="1" as="geometry">
            <mxPoint x="545" y="620" as="sourcePoint"/>
            <mxPoint x="717" y="760" as="targetPoint"/>
          </mxGeometry>
        </mxCell>
        <mxCell id="qlAdY1XwLGwGvMlZjiqR-115" value="" style="endArrow=none;html=1;rounded=0;exitX=0.5;exitY=1;exitDx=0;exitDy=0;entryX=0;entryY=0.5;entryDx=0;entryDy=0;" parent="1" source="qlAdY1XwLGwGvMlZjiqR-77" target="qlAdY1XwLGwGvMlZjiqR-120" edge="1">
          <mxGeometry relative="1" as="geometry">
            <mxPoint x="565.63" y="840" as="sourcePoint"/>
            <mxPoint x="730" y="810" as="targetPoint"/>
          </mxGeometry>
        </mxCell>
        <mxCell id="qlAdY1XwLGwGvMlZjiqR-116" value="" style="endArrow=none;html=1;rounded=0;exitX=0.25;exitY=1;exitDx=0;exitDy=0;entryX=0;entryY=0.5;entryDx=0;entryDy=0;" parent="1" source="qlAdY1XwLGwGvMlZjiqR-77" target="qlAdY1XwLGwGvMlZjiqR-111" edge="1">
          <mxGeometry relative="1" as="geometry">
            <mxPoint x="480" y="680" as="sourcePoint"/>
            <mxPoint x="730.63" y="889.5" as="targetPoint"/>
          </mxGeometry>
        </mxCell>
        <mxCell id="qlAdY1XwLGwGvMlZjiqR-120" value="&lt;font style=&quot;font-size: 18px&quot;&gt;Mobile&lt;/font&gt;" style="ellipse;shape=doubleEllipse;margin=3;whiteSpace=wrap;html=1;align=center;" parent="1" vertex="1">
          <mxGeometry x="730" y="800" width="85" height="50" as="geometry"/>
        </mxCell>
        <mxCell id="qlAdY1XwLGwGvMlZjiqR-122" value="&lt;p style=&quot;line-height: 100%&quot;&gt;&lt;font style=&quot;font-size: 18px&quot;&gt;Order&lt;/font&gt;&lt;/p&gt;" style="rounded=0;whiteSpace=wrap;html=1;" parent="1" vertex="1">
          <mxGeometry x="257.5" y="530" width="90" height="50" as="geometry"/>
        </mxCell>
        <mxCell id="qlAdY1XwLGwGvMlZjiqR-123" value="&lt;font style=&quot;font-size: 18px&quot;&gt;Ticket Category&lt;/font&gt;" style="ellipse;shape=doubleEllipse;margin=3;whiteSpace=wrap;html=1;align=center;" parent="1" vertex="1">
          <mxGeometry x="30" y="450" width="115" height="60" as="geometry"/>
        </mxCell>
        <mxCell id="qlAdY1XwLGwGvMlZjiqR-124" value="" style="endArrow=none;html=1;rounded=0;exitX=0.987;exitY=0.5;exitDx=0;exitDy=0;exitPerimeter=0;" parent="1" source="qlAdY1XwLGwGvMlZjiqR-123" edge="1">
          <mxGeometry relative="1" as="geometry">
            <mxPoint x="47.5" y="570" as="sourcePoint"/>
            <mxPoint x="257.5" y="530" as="targetPoint"/>
          </mxGeometry>
        </mxCell>
        <mxCell id="qlAdY1XwLGwGvMlZjiqR-125" value="&lt;font style=&quot;font-size: 18px&quot;&gt;ID&lt;/font&gt;" style="ellipse;whiteSpace=wrap;html=1;align=center;fontStyle=4;" parent="1" vertex="1">
          <mxGeometry x="30" y="400" width="100" height="40" as="geometry"/>
        </mxCell>
        <mxCell id="qlAdY1XwLGwGvMlZjiqR-126" value="&lt;font style=&quot;font-size: 18px&quot;&gt;Number of Tickets&lt;/font&gt;" style="ellipse;shape=doubleEllipse;margin=3;whiteSpace=wrap;html=1;align=center;" parent="1" vertex="1">
          <mxGeometry x="32.5" y="520" width="120" height="70" as="geometry"/>
        </mxCell>
        <mxCell id="qlAdY1XwLGwGvMlZjiqR-129" value="" style="endArrow=none;html=1;rounded=0;entryX=0.25;entryY=0;entryDx=0;entryDy=0;exitX=1;exitY=0.5;exitDx=0;exitDy=0;" parent="1" source="qlAdY1XwLGwGvMlZjiqR-125" target="qlAdY1XwLGwGvMlZjiqR-122" edge="1">
          <mxGeometry relative="1" as="geometry">
            <mxPoint x="152.5" y="422" as="sourcePoint"/>
            <mxPoint x="296.25" y="409.5" as="targetPoint"/>
          </mxGeometry>
        </mxCell>
        <mxCell id="qlAdY1XwLGwGvMlZjiqR-132" value="" style="endArrow=none;html=1;rounded=0;entryX=0;entryY=0.5;entryDx=0;entryDy=0;exitX=0.989;exitY=0.403;exitDx=0;exitDy=0;exitPerimeter=0;" parent="1" source="qlAdY1XwLGwGvMlZjiqR-126" target="qlAdY1XwLGwGvMlZjiqR-122" edge="1">
          <mxGeometry relative="1" as="geometry">
            <mxPoint x="157.5" y="535" as="sourcePoint"/>
            <mxPoint x="187.5" y="535" as="targetPoint"/>
          </mxGeometry>
        </mxCell>
        <mxCell id="qlAdY1XwLGwGvMlZjiqR-135" value="&lt;font style=&quot;font-size: 16px&quot;&gt;1&lt;/font&gt;" style="resizable=0;html=1;align=right;verticalAlign=bottom;" parent="1" connectable="0" vertex="1">
          <mxGeometry x="1" relative="1" as="geometry">
            <mxPoint x="105.5" y="870" as="offset"/>
          </mxGeometry>
        </mxCell>
        <mxCell id="qlAdY1XwLGwGvMlZjiqR-136" value="&lt;p style=&quot;line-height: 100%&quot;&gt;&lt;font style=&quot;font-size: 18px&quot;&gt;Order&lt;/font&gt;&lt;/p&gt;&lt;p style=&quot;line-height: 100%&quot;&gt;&lt;font style=&quot;font-size: 18px&quot;&gt;&amp;nbsp;Details&lt;/font&gt;&lt;/p&gt;" style="rounded=0;whiteSpace=wrap;html=1;" parent="1" vertex="1">
          <mxGeometry x="320" y="970" width="90" height="50" as="geometry"/>
        </mxCell>
        <mxCell id="qlAdY1XwLGwGvMlZjiqR-137" value="&lt;font style=&quot;font-size: 18px&quot;&gt;Ticket Category&lt;/font&gt;" style="ellipse;shape=doubleEllipse;margin=3;whiteSpace=wrap;html=1;align=center;" parent="1" vertex="1">
          <mxGeometry x="95" y="1090" width="115" height="60" as="geometry"/>
        </mxCell>
        <mxCell id="qlAdY1XwLGwGvMlZjiqR-138" value="" style="endArrow=none;html=1;rounded=0;exitX=0.987;exitY=0.5;exitDx=0;exitDy=0;exitPerimeter=0;entryX=0.25;entryY=1;entryDx=0;entryDy=0;" parent="1" source="qlAdY1XwLGwGvMlZjiqR-137" target="qlAdY1XwLGwGvMlZjiqR-136" edge="1">
          <mxGeometry relative="1" as="geometry">
            <mxPoint x="120" y="940" as="sourcePoint"/>
            <mxPoint x="342.5" y="1030" as="targetPoint"/>
          </mxGeometry>
        </mxCell>
        <mxCell id="qlAdY1XwLGwGvMlZjiqR-139" value="&lt;font style=&quot;font-size: 18px&quot;&gt;ID&lt;/font&gt;" style="ellipse;whiteSpace=wrap;html=1;align=center;fontStyle=4;" parent="1" vertex="1">
          <mxGeometry x="102.5" y="820" width="100" height="40" as="geometry"/>
        </mxCell>
        <mxCell id="qlAdY1XwLGwGvMlZjiqR-140" value="&lt;font style=&quot;font-size: 18px&quot;&gt;Number of Tickets&lt;/font&gt;" style="ellipse;shape=doubleEllipse;margin=3;whiteSpace=wrap;html=1;align=center;" parent="1" vertex="1">
          <mxGeometry x="100" y="1160" width="120" height="70" as="geometry"/>
        </mxCell>
        <mxCell id="qlAdY1XwLGwGvMlZjiqR-141" value="" style="endArrow=none;html=1;rounded=0;entryX=0.5;entryY=0;entryDx=0;entryDy=0;exitX=1;exitY=0.5;exitDx=0;exitDy=0;" parent="1" source="qlAdY1XwLGwGvMlZjiqR-139" target="qlAdY1XwLGwGvMlZjiqR-136" edge="1">
          <mxGeometry relative="1" as="geometry">
            <mxPoint x="225" y="792" as="sourcePoint"/>
            <mxPoint x="368.75" y="779.5" as="targetPoint"/>
          </mxGeometry>
        </mxCell>
        <mxCell id="qlAdY1XwLGwGvMlZjiqR-142" value="" style="endArrow=none;html=1;rounded=0;exitX=0.989;exitY=0.403;exitDx=0;exitDy=0;exitPerimeter=0;entryX=0.5;entryY=1;entryDx=0;entryDy=0;" parent="1" source="qlAdY1XwLGwGvMlZjiqR-140" target="qlAdY1XwLGwGvMlZjiqR-136" edge="1">
          <mxGeometry relative="1" as="geometry">
            <mxPoint x="230" y="905" as="sourcePoint"/>
            <mxPoint x="365.5" y="1010" as="targetPoint"/>
          </mxGeometry>
        </mxCell>
        <mxCell id="qlAdY1XwLGwGvMlZjiqR-144" value="&lt;font style=&quot;font-size: 18px&quot;&gt;Name&lt;/font&gt;" style="ellipse;whiteSpace=wrap;html=1;align=center;" parent="1" vertex="1">
          <mxGeometry x="102.5" y="870" width="87.5" height="50" as="geometry"/>
        </mxCell>
        <mxCell id="qlAdY1XwLGwGvMlZjiqR-145" value="&lt;font style=&quot;font-size: 18px&quot;&gt;Mobile&lt;/font&gt;" style="ellipse;shape=doubleEllipse;margin=3;whiteSpace=wrap;html=1;align=center;" parent="1" vertex="1">
          <mxGeometry x="103.44" y="1030" width="85" height="50" as="geometry"/>
        </mxCell>
        <mxCell id="qlAdY1XwLGwGvMlZjiqR-146" value="&lt;font style=&quot;font-size: 18px&quot;&gt;Email&lt;/font&gt;" style="ellipse;whiteSpace=wrap;html=1;align=center;" parent="1" vertex="1">
          <mxGeometry x="103.44" y="980" width="83.12" height="40" as="geometry"/>
        </mxCell>
        <mxCell id="qlAdY1XwLGwGvMlZjiqR-147" value="&lt;span style=&quot;font-size: 18px&quot;&gt;City&lt;/span&gt;" style="ellipse;whiteSpace=wrap;html=1;align=center;" parent="1" vertex="1">
          <mxGeometry x="100.63" y="930" width="84.37" height="40" as="geometry"/>
        </mxCell>
        <mxCell id="qlAdY1XwLGwGvMlZjiqR-149" value="" style="endArrow=none;html=1;rounded=0;entryX=0;entryY=0;entryDx=0;entryDy=0;" parent="1" target="qlAdY1XwLGwGvMlZjiqR-136" edge="1">
          <mxGeometry relative="1" as="geometry">
            <mxPoint x="185" y="949.5" as="sourcePoint"/>
            <mxPoint x="322.5" y="960" as="targetPoint"/>
          </mxGeometry>
        </mxCell>
        <mxCell id="qlAdY1XwLGwGvMlZjiqR-150" value="" style="endArrow=none;html=1;rounded=0;entryX=0.25;entryY=0;entryDx=0;entryDy=0;" parent="1" target="qlAdY1XwLGwGvMlZjiqR-136" edge="1">
          <mxGeometry relative="1" as="geometry">
            <mxPoint x="192.5" y="894.5" as="sourcePoint"/>
            <mxPoint x="352.5" y="894.5" as="targetPoint"/>
          </mxGeometry>
        </mxCell>
        <mxCell id="qlAdY1XwLGwGvMlZjiqR-151" value="" style="endArrow=none;html=1;rounded=0;entryX=0;entryY=0.5;entryDx=0;entryDy=0;" parent="1" target="qlAdY1XwLGwGvMlZjiqR-136" edge="1">
          <mxGeometry relative="1" as="geometry">
            <mxPoint x="186.56" y="999.5" as="sourcePoint"/>
            <mxPoint x="346.56" y="999.5" as="targetPoint"/>
          </mxGeometry>
        </mxCell>
        <mxCell id="qlAdY1XwLGwGvMlZjiqR-152" value="" style="endArrow=none;html=1;rounded=0;entryX=0;entryY=1;entryDx=0;entryDy=0;" parent="1" target="qlAdY1XwLGwGvMlZjiqR-136" edge="1">
          <mxGeometry relative="1" as="geometry">
            <mxPoint x="188.44" y="1054.5" as="sourcePoint"/>
            <mxPoint x="348.44" y="1054.5" as="targetPoint"/>
          </mxGeometry>
        </mxCell>
        <mxCell id="qlAdY1XwLGwGvMlZjiqR-153" value="" style="endArrow=none;html=1;rounded=0;entryX=0.75;entryY=1;entryDx=0;entryDy=0;" parent="1" target="qlAdY1XwLGwGvMlZjiqR-136" edge="1">
          <mxGeometry relative="1" as="geometry">
            <mxPoint x="192.5" y="1264.5" as="sourcePoint"/>
            <mxPoint x="352.5" y="1264.5" as="targetPoint"/>
          </mxGeometry>
        </mxCell>
        <mxCell id="qlAdY1XwLGwGvMlZjiqR-154" value="" style="endArrow=none;html=1;rounded=0;entryX=0.25;entryY=1;entryDx=0;entryDy=0;" parent="1" target="qlAdY1XwLGwGvMlZjiqR-122" edge="1">
          <mxGeometry relative="1" as="geometry">
            <mxPoint x="140" y="684.5" as="sourcePoint"/>
            <mxPoint x="300" y="684.5" as="targetPoint"/>
          </mxGeometry>
        </mxCell>
        <mxCell id="qlAdY1XwLGwGvMlZjiqR-156" value="&lt;span style=&quot;font-size: 17px&quot;&gt;Total_Price&lt;/span&gt;" style="ellipse;whiteSpace=wrap;html=1;align=center;" parent="1" vertex="1">
          <mxGeometry x="40" y="720" width="90" height="50" as="geometry"/>
        </mxCell>
        <mxCell id="qlAdY1XwLGwGvMlZjiqR-157" value="&lt;span style=&quot;font-size: 17px&quot;&gt;CardType&lt;/span&gt;" style="ellipse;whiteSpace=wrap;html=1;align=center;" parent="1" vertex="1">
          <mxGeometry x="40" y="600" width="90" height="50" as="geometry"/>
        </mxCell>
        <mxCell id="qlAdY1XwLGwGvMlZjiqR-158" value="&lt;span style=&quot;font-size: 17px&quot;&gt;CardNumber&lt;/span&gt;" style="ellipse;whiteSpace=wrap;html=1;align=center;" parent="1" vertex="1">
          <mxGeometry x="35" y="660" width="110" height="50" as="geometry"/>
        </mxCell>
        <mxCell id="qlAdY1XwLGwGvMlZjiqR-159" value="" style="endArrow=none;html=1;rounded=0;entryX=0;entryY=1;entryDx=0;entryDy=0;" parent="1" target="qlAdY1XwLGwGvMlZjiqR-122" edge="1">
          <mxGeometry relative="1" as="geometry">
            <mxPoint x="130" y="624.5" as="sourcePoint"/>
            <mxPoint x="252.5" y="580" as="targetPoint"/>
          </mxGeometry>
        </mxCell>
        <mxCell id="qlAdY1XwLGwGvMlZjiqR-160" value="" style="endArrow=none;html=1;rounded=0;entryX=0.5;entryY=1;entryDx=0;entryDy=0;" parent="1" target="qlAdY1XwLGwGvMlZjiqR-122" edge="1">
          <mxGeometry relative="1" as="geometry">
            <mxPoint x="130" y="744.5" as="sourcePoint"/>
            <mxPoint x="290" y="744.5" as="targetPoint"/>
          </mxGeometry>
        </mxCell>
        <mxCell id="qlAdY1XwLGwGvMlZjiqR-161" value="&lt;span style=&quot;font-size: 17px&quot;&gt;Total_Price&lt;/span&gt;" style="ellipse;whiteSpace=wrap;html=1;align=center;" parent="1" vertex="1">
          <mxGeometry x="107.5" y="1240" width="90" height="50" as="geometry"/>
        </mxCell>
        <mxCell id="qlAdY1XwLGwGvMlZjiqR-165" value="&lt;span style=&quot;font-size: 18px&quot;&gt;Creat&lt;/span&gt;" style="shape=rhombus;perimeter=rhombusPerimeter;whiteSpace=wrap;html=1;align=center;" parent="1" vertex="1">
          <mxGeometry x="365" y="440" width="120" height="60" as="geometry"/>
        </mxCell>
        <mxCell id="qlAdY1XwLGwGvMlZjiqR-168" value="" style="endArrow=none;html=1;rounded=0;exitX=1;exitY=0.5;exitDx=0;exitDy=0;" parent="1" source="qlAdY1XwLGwGvMlZjiqR-165" edge="1">
          <mxGeometry relative="1" as="geometry">
            <mxPoint x="340" y="570" as="sourcePoint"/>
            <mxPoint x="500" y="567" as="targetPoint"/>
          </mxGeometry>
        </mxCell>
        <mxCell id="qlAdY1XwLGwGvMlZjiqR-169" value="1" style="resizable=0;html=1;align=right;verticalAlign=bottom;fontSize=16;" parent="qlAdY1XwLGwGvMlZjiqR-168" connectable="0" vertex="1">
          <mxGeometry x="1" relative="1" as="geometry">
            <mxPoint x="9.91" y="3.3499999999999996" as="offset"/>
          </mxGeometry>
        </mxCell>
        <mxCell id="qlAdY1XwLGwGvMlZjiqR-170" value="" style="endArrow=none;html=1;rounded=0;entryX=1;entryY=0;entryDx=0;entryDy=0;exitX=0;exitY=0.5;exitDx=0;exitDy=0;" parent="1" source="qlAdY1XwLGwGvMlZjiqR-165" target="qlAdY1XwLGwGvMlZjiqR-122" edge="1">
          <mxGeometry relative="1" as="geometry">
            <mxPoint x="360" y="490" as="sourcePoint"/>
            <mxPoint x="351.56" y="580" as="targetPoint"/>
          </mxGeometry>
        </mxCell>
        <mxCell id="qlAdY1XwLGwGvMlZjiqR-171" value="N" style="resizable=0;html=1;align=right;verticalAlign=bottom;fontSize=16;" parent="qlAdY1XwLGwGvMlZjiqR-170" connectable="0" vertex="1">
          <mxGeometry x="1" relative="1" as="geometry">
            <mxPoint x="-7.63" y="0.379999999999999" as="offset"/>
          </mxGeometry>
        </mxCell>
        <mxCell id="qlAdY1XwLGwGvMlZjiqR-178" value="&lt;span style=&quot;font-size: 18px&quot;&gt;Has&lt;/span&gt;" style="shape=rhombus;perimeter=rhombusPerimeter;whiteSpace=wrap;html=1;align=center;" parent="1" vertex="1">
          <mxGeometry x="290" y="670" width="120" height="60" as="geometry"/>
        </mxCell>
        <mxCell id="qlAdY1XwLGwGvMlZjiqR-181" value="" style="endArrow=none;html=1;rounded=0;fontSize=16;exitX=1;exitY=1;exitDx=0;exitDy=0;" parent="1" source="qlAdY1XwLGwGvMlZjiqR-122" target="qlAdY1XwLGwGvMlZjiqR-178" edge="1">
          <mxGeometry relative="1" as="geometry">
            <mxPoint x="290" y="780" as="sourcePoint"/>
            <mxPoint x="400" y="960" as="targetPoint"/>
          </mxGeometry>
        </mxCell>
        <mxCell id="qlAdY1XwLGwGvMlZjiqR-182" value="1" style="resizable=0;html=1;align=right;verticalAlign=bottom;fontSize=16;" parent="qlAdY1XwLGwGvMlZjiqR-181" connectable="0" vertex="1">
          <mxGeometry x="1" relative="1" as="geometry">
            <mxPoint x="-1.8699999999999992" y="0.02" as="offset"/>
          </mxGeometry>
        </mxCell>
        <mxCell id="qlAdY1XwLGwGvMlZjiqR-189" value="" style="endArrow=none;html=1;rounded=0;fontSize=16;exitX=0.5;exitY=1;exitDx=0;exitDy=0;entryX=1;entryY=0.5;entryDx=0;entryDy=0;" parent="1" source="qlAdY1XwLGwGvMlZjiqR-178" target="qlAdY1XwLGwGvMlZjiqR-136" edge="1">
          <mxGeometry relative="1" as="geometry">
            <mxPoint x="521.25" y="1080" as="sourcePoint"/>
            <mxPoint x="480" y="980" as="targetPoint"/>
            <Array as="points">
              <mxPoint x="510" y="830"/>
              <mxPoint x="510" y="995"/>
              <mxPoint x="470" y="995"/>
            </Array>
          </mxGeometry>
        </mxCell>
        <mxCell id="qlAdY1XwLGwGvMlZjiqR-190" value="1" style="resizable=0;html=1;align=right;verticalAlign=bottom;fontSize=16;" parent="qlAdY1XwLGwGvMlZjiqR-189" connectable="0" vertex="1">
          <mxGeometry x="1" relative="1" as="geometry">
            <mxPoint x="10.09" y="-9.63" as="offset"/>
          </mxGeometry>
        </mxCell>
        <mxCell id="cGjbYtUiIi27o4DCnH04-1" value="&lt;span style=&quot;font-size: 18px&quot;&gt;In&lt;/span&gt;" style="shape=rhombus;perimeter=rhombusPerimeter;whiteSpace=wrap;html=1;align=center;" vertex="1" parent="1">
          <mxGeometry x="347.5" y="100" width="120" height="60" as="geometry"/>
        </mxCell>
        <mxCell id="cGjbYtUiIi27o4DCnH04-2" value="" style="endArrow=none;html=1;rounded=0;exitX=1;exitY=0.5;exitDx=0;exitDy=0;" edge="1" parent="1" source="cGjbYtUiIi27o4DCnH04-1">
          <mxGeometry relative="1" as="geometry">
            <mxPoint x="467.5" y="120" as="sourcePoint"/>
            <mxPoint x="510" y="180" as="targetPoint"/>
          </mxGeometry>
        </mxCell>
        <mxCell id="cGjbYtUiIi27o4DCnH04-3" value="1" style="resizable=0;html=1;align=right;verticalAlign=bottom;fontSize=16;" connectable="0" vertex="1" parent="cGjbYtUiIi27o4DCnH04-2">
          <mxGeometry x="1" relative="1" as="geometry">
            <mxPoint x="9.91" y="3.3499999999999996" as="offset"/>
          </mxGeometry>
        </mxCell>
        <mxCell id="cGjbYtUiIi27o4DCnH04-4" value="" style="endArrow=none;html=1;rounded=0;entryX=0.862;entryY=-0.02;entryDx=0;entryDy=0;exitX=0;exitY=0.5;exitDx=0;exitDy=0;entryPerimeter=0;" edge="1" parent="1" target="qlAdY1XwLGwGvMlZjiqR-1">
          <mxGeometry relative="1" as="geometry">
            <mxPoint x="347.5" y="130" as="sourcePoint"/>
            <mxPoint x="330" y="190" as="targetPoint"/>
          </mxGeometry>
        </mxCell>
        <mxCell id="cGjbYtUiIi27o4DCnH04-5" value="N" style="resizable=0;html=1;align=right;verticalAlign=bottom;fontSize=16;" connectable="0" vertex="1" parent="cGjbYtUiIi27o4DCnH04-4">
          <mxGeometry x="1" relative="1" as="geometry">
            <mxPoint x="-7.63" y="0.379999999999999" as="offset"/>
          </mxGeometry>
        </mxCell>
      </root>
    </mxGraphModel>
  </diagram>
</mxfile>
